<?xml version="1.0" standalone="no"?>
<!DOCTYPE svg PUBLIC "-//W3C//DTD SVG 20010904//EN"
 "http://www.w3.org/TR/2001/REC-SVG-20010904/DTD/svg10.dtd">
<svg version="1.0" xmlns="http://www.w3.org/2000/svg"
 width="2000.000000pt" height="2000.000000pt" viewBox="0 0 2000.000000 2000.000000"
 preserveAspectRatio="xMidYMid meet">
<metadata>
Created by potrace 1.14, written by Peter Selinger 2001-2017
</metadata>
<g transform="translate(0.000000,2000.000000) scale(0.100000,-0.100000)"
fill="#000000" stroke="none">
<path d="M0 10000 l0 -10000 10000 0 10000 0 0 10000 0 10000 -10000 0 -10000
0 0 -10000z m4610 7080 c16 -13 41 -20 70 -20 29 0 54 -7 70 -20 14 -11 32
-20 40 -20 8 0 26 -9 40 -20 14 -11 31 -20 38 -20 7 0 40 -19 74 -42 215 -152
266 -187 383 -267 72 -48 139 -98 150 -111 27 -31 100 -80 118 -80 9 0 39 -22
69 -48 63 -57 112 -92 128 -92 15 0 120 -72 145 -100 27 -30 161 -120 179
-120 8 0 38 -22 68 -48 29 -27 107 -85 173 -130 66 -45 165 -113 220 -152 218
-153 305 -210 319 -210 8 0 38 -22 68 -48 29 -27 109 -87 177 -133 124 -85
278 -191 476 -329 206 -144 361 -251 520 -359 88 -59 169 -118 179 -130 l19
-21 1669 0 1669 0 47 31 c26 18 63 47 83 66 20 19 63 53 96 76 184 128 243
167 253 167 17 0 130 79 188 132 30 26 60 48 69 48 18 0 91 49 118 80 24 27
250 180 266 180 6 0 36 23 66 50 30 28 62 50 72 50 9 0 30 14 47 31 16 17 89
72 163 123 304 208 369 252 402 279 20 15 43 27 51 27 8 0 23 10 34 21 10 12
66 54 123 93 57 39 159 109 226 156 67 47 165 114 216 149 52 35 118 86 147
113 30 26 60 48 68 48 21 0 128 74 192 132 30 26 60 48 68 48 13 0 95 53 280
182 33 24 85 64 113 91 29 26 61 47 70 47 9 0 27 9 41 20 14 11 36 20 51 20
14 0 29 4 35 9 23 22 87 51 114 51 16 0 32 5 35 10 4 6 112 10 293 10 269 0
289 -2 312 -20 14 -11 41 -20 60 -20 19 0 46 -9 60 -20 14 -11 32 -20 40 -20
8 0 26 -9 40 -20 14 -11 31 -20 39 -20 61 -1 440 -381 441 -442 0 -7 9 -24 20
-38 11 -14 20 -36 20 -50 0 -15 4 -30 9 -35 20 -21 51 -87 51 -108 0 -12 9
-33 20 -47 19 -25 20 -70 20 -3872 0 -2554 -3 -3849 -10 -3853 -5 -3 -10 -30
-10 -60 0 -30 -4 -57 -10 -60 -5 -3 -10 -26 -10 -50 0 -24 -4 -47 -10 -50 -5
-3 -10 -35 -10 -70 0 -35 -5 -67 -10 -70 -5 -3 -10 -26 -10 -50 0 -24 -5 -47
-10 -50 -5 -3 -10 -30 -10 -58 0 -36 -6 -60 -20 -77 -11 -14 -20 -41 -20 -62
0 -20 -4 -40 -10 -43 -5 -3 -10 -17 -10 -30 0 -13 -4 -27 -10 -30 -5 -3 -10
-28 -10 -55 0 -31 -8 -63 -20 -85 -11 -20 -20 -44 -20 -55 0 -10 -4 -22 -10
-25 -5 -3 -10 -21 -10 -38 0 -18 -9 -43 -20 -57 -11 -14 -20 -36 -20 -50 0
-14 -9 -36 -20 -50 -11 -14 -20 -41 -20 -60 0 -19 -9 -46 -20 -60 -11 -14 -20
-36 -20 -50 0 -14 -13 -41 -30 -60 -16 -19 -29 -46 -30 -60 0 -14 -9 -36 -20
-50 -11 -14 -20 -32 -20 -40 0 -8 -9 -26 -20 -40 -11 -14 -20 -35 -20 -48 0
-13 -19 -50 -42 -84 -24 -33 -46 -66 -49 -72 -9 -16 -27 -53 -39 -76 -5 -11
-14 -29 -20 -40 -5 -11 -14 -28 -19 -37 -5 -10 -14 -29 -20 -43 -7 -14 -39
-61 -71 -105 -33 -44 -60 -86 -60 -93 0 -14 -58 -98 -121 -177 -22 -27 -59
-77 -81 -110 -61 -89 -141 -175 -473 -511 -194 -196 -308 -304 -321 -304 -11
0 -42 -23 -69 -51 -52 -53 -155 -129 -176 -129 -6 0 -36 -22 -66 -50 -30 -27
-61 -50 -69 -50 -14 0 -128 -74 -184 -119 -14 -11 -31 -21 -38 -21 -7 0 -40
-18 -72 -40 -32 -22 -65 -40 -72 -40 -7 0 -24 -9 -38 -20 -14 -11 -32 -20 -40
-20 -8 -1 -31 -14 -50 -30 -19 -17 -41 -30 -50 -30 -8 0 -26 -9 -40 -20 -14
-11 -36 -20 -50 -20 -14 0 -36 -9 -50 -20 -14 -11 -36 -20 -50 -20 -14 0 -36
-9 -50 -20 -14 -11 -32 -20 -41 -20 -10 0 -43 -14 -74 -30 -31 -17 -67 -30
-79 -30 -11 0 -32 -9 -46 -20 -14 -11 -41 -20 -60 -20 -19 0 -46 -9 -60 -20
-14 -11 -36 -20 -50 -20 -14 0 -36 -9 -50 -20 -14 -11 -39 -20 -57 -20 -17 0
-35 -4 -38 -10 -3 -5 -26 -10 -50 -10 -24 0 -47 -4 -50 -10 -3 -5 -19 -10 -35
-10 -16 0 -45 -9 -65 -20 -24 -14 -54 -20 -95 -20 -32 0 -62 -4 -65 -10 -3 -5
-24 -10 -45 -10 -22 0 -55 -9 -75 -20 -26 -15 -54 -20 -105 -20 -38 0 -72 -5
-75 -10 -3 -6 -35 -10 -70 -10 -35 0 -67 -4 -70 -10 -3 -5 -35 -10 -70 -10
-35 0 -67 -4 -70 -10 -4 -7 -797 -10 -2345 -10 -1548 0 -2341 3 -2345 10 -3 6
-52 10 -110 10 -58 0 -107 4 -110 10 -3 6 -30 10 -60 10 -30 0 -57 5 -60 10
-3 6 -24 10 -45 10 -22 0 -55 9 -75 20 -24 14 -54 20 -95 20 -32 0 -62 5 -65
10 -3 6 -25 10 -48 10 -26 0 -51 8 -67 20 -17 13 -41 20 -72 20 -26 0 -50 5
-53 10 -3 6 -21 10 -40 10 -19 0 -37 5 -40 10 -3 6 -21 10 -38 10 -18 0 -43 9
-57 20 -14 11 -36 20 -50 20 -14 0 -36 9 -50 20 -14 11 -37 20 -52 20 -15 0
-30 5 -33 10 -3 6 -17 10 -30 10 -13 0 -27 5 -30 10 -3 6 -17 10 -30 10 -13 0
-27 4 -30 10 -3 5 -16 10 -28 10 -12 0 -33 9 -47 20 -14 11 -36 20 -50 20 -14
0 -36 9 -50 20 -14 11 -32 20 -40 20 -8 0 -26 9 -40 20 -14 11 -36 20 -50 20
-14 0 -36 9 -50 20 -14 11 -32 20 -40 20 -9 0 -32 14 -53 31 -30 25 -44 30
-79 27 l-43 -3 -3 -304 c-2 -284 -4 -305 -22 -331 -11 -16 -20 -35 -20 -43 0
-9 -4 -19 -10 -22 -5 -3 -10 -24 -10 -45 0 -22 -9 -55 -20 -75 -11 -20 -20
-43 -20 -53 0 -9 -9 -28 -20 -42 -11 -14 -20 -41 -20 -60 0 -19 -9 -46 -20
-60 -11 -14 -20 -32 -20 -40 0 -8 -23 -44 -50 -80 -28 -36 -50 -73 -50 -84 0
-26 -261 -289 -345 -347 -38 -26 -81 -57 -95 -68 -14 -11 -32 -21 -40 -21 -8
0 -26 -9 -40 -20 -14 -11 -36 -20 -50 -20 -14 0 -36 -9 -50 -20 -14 -11 -36
-20 -50 -20 -14 0 -36 -9 -50 -20 -23 -18 -42 -20 -290 -20 -248 0 -267 2
-290 20 -14 11 -41 20 -60 20 -19 0 -46 9 -60 20 -14 11 -32 20 -40 20 -8 0
-26 9 -40 20 -14 11 -32 20 -40 20 -8 0 -26 10 -40 21 -14 11 -56 42 -95 69
-96 66 -250 226 -323 335 -34 50 -70 101 -81 115 -11 14 -21 32 -21 40 0 8 -9
26 -20 40 -11 14 -20 32 -20 40 0 8 -9 26 -20 40 -11 14 -20 41 -20 60 0 19
-9 46 -20 60 -11 14 -20 39 -20 57 0 17 -4 35 -10 38 -5 3 -10 24 -10 45 0 22
-9 55 -20 75 -11 20 -20 53 -20 75 0 21 -4 42 -10 45 -14 9 -14 11981 0 11990
6 3 10 24 10 45 0 22 9 55 20 75 11 20 20 53 20 73 0 27 8 47 30 72 16 19 29
42 30 50 0 8 9 26 20 40 11 14 20 34 20 44 0 27 389 416 416 416 10 0 30 9 44
20 14 11 32 20 40 20 8 0 26 9 40 20 14 11 35 20 47 20 12 0 25 5 28 10 3 6
17 10 30 10 13 0 27 5 30 10 4 6 112 10 293 10 269 0 289 -2 312 -20z"/>
<path d="M4075 16219 l-85 -82 0 -206 0 -207 48 -47 c27 -27 89 -76 139 -110
50 -34 139 -96 198 -137 173 -120 350 -243 490 -339 72 -49 143 -103 159 -120
17 -17 37 -31 45 -32 9 0 68 -36 131 -80 63 -43 174 -119 245 -168 72 -49 143
-103 159 -120 17 -17 36 -31 43 -31 19 0 121 -71 157 -109 17 -17 37 -31 45
-32 9 0 68 -36 131 -80 63 -43 174 -119 245 -168 72 -49 143 -103 159 -120 17
-17 38 -31 47 -31 10 0 41 -22 71 -48 67 -61 112 -92 132 -92 23 0 152 -126
197 -192 38 -56 39 -59 39 -148 0 -89 -1 -92 -39 -149 -22 -31 -67 -83 -101
-114 -51 -48 -67 -57 -98 -57 -21 0 -48 -9 -62 -20 -14 -11 -36 -20 -50 -20
-14 0 -36 -9 -50 -20 -14 -11 -36 -20 -50 -20 -14 0 -36 -9 -50 -20 -14 -11
-36 -20 -50 -20 -14 -1 -41 -14 -60 -30 -19 -17 -41 -30 -50 -30 -8 0 -26 -9
-40 -20 -14 -11 -32 -20 -40 -20 -8 0 -26 -9 -40 -20 -14 -11 -32 -20 -40 -20
-8 0 -26 -9 -40 -20 -14 -11 -33 -20 -42 -20 -9 0 -20 -5 -23 -10 -10 -16
-242 -170 -256 -170 -7 0 -33 -19 -59 -42 -26 -24 -78 -68 -116 -98 -75 -60
-642 -624 -715 -711 -62 -74 -89 -114 -89 -132 0 -9 -22 -39 -48 -69 -57 -63
-92 -112 -92 -128 0 -6 -18 -38 -40 -70 -22 -32 -40 -65 -40 -72 0 -8 -13 -29
-30 -48 -16 -19 -29 -42 -30 -50 0 -8 -9 -26 -20 -40 -11 -14 -20 -32 -20 -40
0 -8 -9 -26 -20 -40 -11 -14 -20 -32 -20 -40 0 -8 -9 -26 -20 -40 -11 -14 -20
-36 -20 -50 0 -14 -13 -41 -30 -60 -16 -19 -29 -46 -30 -60 0 -14 -9 -36 -20
-50 -11 -14 -20 -36 -20 -50 0 -14 -9 -36 -20 -50 -11 -14 -20 -41 -20 -60 0
-19 -9 -46 -20 -60 -11 -14 -20 -41 -20 -60 0 -19 -9 -46 -20 -60 -11 -14 -20
-41 -20 -62 0 -20 -5 -40 -10 -43 -5 -3 -10 -21 -10 -38 0 -18 -9 -43 -20 -57
-13 -17 -20 -41 -20 -72 0 -26 -4 -50 -10 -53 -5 -3 -10 -26 -10 -50 0 -24 -4
-47 -10 -50 -14 -9 -14 -1541 0 -1550 6 -3 10 -39 10 -80 0 -41 5 -77 10 -80
6 -3 10 -33 10 -65 0 -41 6 -71 20 -95 11 -20 20 -53 20 -75 0 -21 5 -42 10
-45 6 -3 10 -24 10 -45 0 -22 9 -55 20 -75 11 -20 20 -50 20 -68 0 -18 9 -43
20 -57 13 -16 20 -41 20 -70 0 -29 7 -54 20 -70 11 -14 20 -41 20 -60 0 -19 9
-46 20 -60 11 -14 20 -41 20 -60 1 -24 10 -46 30 -70 17 -19 30 -46 30 -60 0
-14 9 -36 20 -50 11 -14 20 -32 20 -40 0 -8 9 -26 20 -40 11 -14 20 -36 20
-50 0 -14 9 -36 20 -50 11 -14 20 -33 20 -42 0 -9 5 -20 10 -23 16 -10 90
-122 90 -137 0 -7 9 -24 20 -38 11 -14 20 -32 20 -40 0 -8 18 -38 39 -67 22
-28 72 -100 112 -160 77 -116 121 -169 239 -295 60 -64 79 -78 100 -76 l25 3
3 1617 2 1617 -29 20 c-17 12 -45 21 -66 21 -50 0 -129 56 -237 168 -62 65
-88 99 -88 116 0 14 -4 28 -10 31 -5 3 -10 46 -10 95 0 49 5 92 10 95 6 3 10
17 10 31 0 17 24 49 78 105 94 100 178 159 224 159 18 0 44 9 58 20 14 11 41
20 61 20 47 0 59 15 59 71 0 26 5 51 10 54 6 3 10 21 10 38 0 18 9 43 20 57
11 14 20 37 20 52 0 15 5 30 10 33 6 3 10 16 10 28 0 12 9 33 20 47 11 14 20
32 20 40 0 8 9 26 20 40 11 14 20 36 20 50 0 14 9 36 20 50 11 14 20 32 20 40
0 8 10 26 21 40 49 61 119 171 119 187 0 23 510 533 533 533 10 0 45 18 77 40
32 22 65 40 72 40 7 0 24 9 38 20 14 11 32 20 40 20 8 1 31 14 50 30 19 17 41
30 50 30 8 0 26 9 40 20 14 11 41 20 60 20 19 0 46 9 60 20 14 11 32 20 40 20
8 0 26 9 40 20 14 11 39 20 57 20 17 0 35 5 38 10 3 6 27 10 53 10 31 0 55 7
72 20 16 12 41 20 67 20 23 0 45 5 48 10 4 6 127 10 335 10 208 0 331 -4 335
-10 3 -5 30 -10 58 -10 36 0 60 -6 77 -20 14 -11 41 -20 62 -20 20 0 40 -4 43
-10 3 -5 21 -10 38 -10 18 0 43 -9 57 -20 14 -11 36 -20 50 -20 14 0 36 -9 50
-20 14 -11 41 -20 60 -20 19 0 46 -9 60 -20 14 -11 32 -20 40 -20 9 0 31 -13
50 -30 19 -16 41 -29 48 -30 7 0 40 -18 72 -40 32 -22 64 -40 70 -40 6 0 37
-18 68 -39 75 -52 498 -479 550 -556 23 -33 50 -71 61 -85 11 -14 21 -32 21
-40 0 -8 9 -26 20 -40 11 -14 20 -32 20 -40 0 -8 9 -26 20 -40 11 -14 20 -32
20 -40 0 -8 9 -26 20 -40 11 -14 20 -36 20 -50 0 -15 4 -30 9 -35 20 -21 51
-87 51 -108 0 -12 9 -33 20 -47 11 -14 20 -41 20 -60 0 -19 9 -46 20 -60 14
-17 20 -41 20 -77 0 -28 5 -55 10 -58 6 -3 10 -21 10 -40 0 -19 5 -37 10 -40
6 -4 10 -127 10 -335 0 -208 -4 -331 -10 -335 -5 -3 -10 -26 -10 -50 0 -24 -4
-47 -10 -50 -5 -3 -10 -30 -10 -58 0 -36 -6 -60 -20 -77 -11 -14 -20 -41 -20
-60 0 -19 -9 -46 -20 -60 -11 -14 -20 -41 -20 -60 0 -25 -9 -46 -30 -70 -16
-19 -29 -42 -30 -50 0 -8 -9 -26 -20 -40 -11 -14 -20 -36 -20 -50 0 -14 -9
-36 -20 -50 -11 -14 -20 -31 -20 -38 0 -15 -74 -127 -90 -137 -5 -3 -10 -14
-10 -23 0 -10 -21 -44 -47 -77 -54 -67 -370 -385 -454 -456 -67 -57 -204 -149
-221 -149 -7 0 -24 -9 -38 -20 -14 -11 -32 -20 -40 -20 -8 0 -26 -9 -40 -20
-14 -11 -29 -20 -33 -20 -5 0 -28 -14 -52 -30 -24 -16 -54 -30 -67 -30 -13 0
-34 -9 -48 -20 -14 -11 -39 -20 -57 -20 -17 0 -35 -4 -38 -10 -3 -5 -17 -10
-30 -10 -13 0 -27 -4 -30 -10 -3 -5 -19 -10 -35 -10 -16 0 -45 -9 -65 -20 -24
-14 -54 -20 -95 -20 -32 0 -62 -4 -65 -10 -8 -14 -702 -14 -710 0 -3 6 -26 10
-50 10 -24 0 -47 5 -50 10 -3 6 -17 10 -30 10 -13 0 -27 5 -30 10 -3 6 -21 10
-38 10 -18 0 -43 9 -57 20 -16 13 -41 20 -70 20 -29 0 -54 7 -70 20 -14 11
-36 20 -50 20 -14 0 -36 9 -50 20 -14 11 -36 20 -50 20 -14 0 -54 23 -90 50
-36 28 -71 50 -78 50 -14 0 -219 138 -314 211 -42 33 -68 36 -103 13 l-25 -16
0 -1322 0 -1322 33 -30 c43 -41 92 -74 109 -74 7 0 33 -16 58 -36 24 -19 60
-42 80 -51 19 -9 47 -25 62 -35 14 -10 32 -18 40 -18 7 0 24 -9 38 -20 14 -11
32 -20 40 -20 9 0 31 -13 50 -30 19 -16 42 -29 50 -30 8 0 26 -9 40 -20 14
-11 41 -20 60 -20 19 0 46 -9 60 -20 14 -11 32 -20 40 -20 8 0 26 -9 40 -20
14 -11 41 -20 60 -20 19 0 46 -9 60 -20 14 -11 35 -20 47 -20 21 0 87 -31 108
-51 5 -5 38 -9 75 -9 49 0 71 -5 90 -20 14 -11 35 -20 47 -20 12 0 38 -9 58
-20 22 -12 54 -20 85 -20 27 0 52 -4 55 -10 3 -5 30 -10 60 -10 30 0 57 -5 60
-10 3 -6 48 -10 98 -10 76 0 96 -4 117 -20 25 -19 59 -20 2427 -20 1591 0
2404 3 2408 10 3 5 21 10 40 10 19 0 37 4 40 10 3 5 30 10 60 10 30 0 57 5 60
10 3 6 48 10 100 10 52 0 97 4 100 10 3 6 18 10 33 10 15 0 38 9 52 20 16 13
41 20 70 20 29 0 54 7 70 20 19 15 41 20 90 20 49 0 71 5 90 20 14 11 33 20
42 20 10 0 33 9 53 20 20 11 44 20 55 20 10 0 22 5 25 10 3 6 18 10 33 10 15
0 38 9 52 20 14 11 32 20 40 20 8 0 26 9 40 20 14 11 36 20 50 20 15 0 30 4
35 9 16 15 85 51 98 51 7 0 23 9 37 20 14 11 32 20 40 20 8 0 26 9 40 20 14
11 32 20 40 20 8 0 44 22 80 50 36 27 71 49 78 50 7 0 40 18 72 40 32 22 64
40 70 40 15 0 151 93 175 120 11 12 47 40 80 62 74 50 685 656 685 680 0 10
32 51 70 92 39 40 70 79 70 85 0 11 56 96 169 256 28 39 50 77 51 85 0 8 9 26
20 40 11 14 20 32 20 40 0 9 13 31 30 50 16 19 29 46 30 60 0 14 9 36 20 50
11 14 20 32 20 40 0 8 9 26 20 40 11 14 20 36 20 50 0 14 13 41 30 60 16 19
29 45 30 57 0 12 9 38 20 58 11 20 20 48 20 63 0 15 9 38 20 52 11 14 20 41
20 60 0 19 9 46 20 60 11 14 20 39 20 57 0 18 9 48 20 68 11 20 20 49 20 65 0
16 5 32 10 35 6 3 10 25 10 48 0 26 8 51 20 67 11 14 20 41 20 62 0 20 5 40
10 43 6 3 10 35 10 70 0 35 5 67 10 70 6 3 10 52 10 110 0 58 4 107 10 110 14
9 14 1521 0 1530 -5 3 -10 26 -10 50 0 24 -4 47 -10 50 -5 3 -10 26 -10 50 0
24 -4 47 -10 50 -5 3 -10 27 -10 53 0 31 -7 55 -20 72 -11 14 -20 35 -20 47 0
12 -5 25 -10 28 -5 3 -10 19 -10 35 0 16 -9 45 -20 65 -11 20 -20 46 -20 58 0
12 -9 33 -20 47 -13 16 -20 41 -20 70 0 29 -7 54 -20 70 -11 14 -20 32 -20 40
-1 8 -14 31 -30 50 -17 19 -30 46 -30 60 0 14 -9 36 -20 50 -11 14 -20 36 -20
50 0 14 -9 36 -20 50 -11 14 -20 32 -20 40 0 8 -9 26 -20 40 -11 14 -20 31
-20 37 0 7 -18 36 -39 64 -22 29 -45 64 -51 78 -7 14 -17 35 -23 46 -12 23
-19 39 -38 79 -8 15 -40 58 -71 94 -32 36 -58 71 -58 79 0 22 -35 69 -112 151
-37 39 -68 80 -68 90 0 10 -105 121 -239 252 -279 274 -364 352 -446 407 -33
22 -69 51 -80 63 -25 28 -100 80 -115 80 -13 0 -186 115 -195 130 -3 5 -14 10
-23 10 -9 0 -28 9 -42 20 -14 11 -32 20 -40 20 -8 0 -26 9 -40 20 -14 11 -32
20 -40 20 -9 0 -31 13 -50 30 -19 16 -42 29 -50 30 -8 0 -26 9 -40 20 -14 11
-36 20 -50 20 -14 0 -36 9 -50 20 -14 11 -32 20 -40 20 -8 0 -26 9 -40 20 -14
11 -41 20 -60 20 -19 0 -46 9 -60 20 -14 11 -38 20 -54 20 -23 0 -49 20 -127
99 l-99 98 0 122 0 122 88 91 c48 50 119 112 157 139 39 27 115 80 170 118 55
38 109 79 120 91 24 27 130 100 145 100 17 0 129 78 188 132 30 26 60 48 69
48 18 0 90 49 118 80 27 30 130 100 148 100 7 0 26 14 43 31 34 37 257 189
277 189 7 0 26 14 43 31 32 35 197 149 214 149 15 0 90 52 115 80 27 30 130
100 148 100 7 0 26 14 43 31 16 17 74 62 129 100 55 38 138 96 185 128 47 33
92 60 101 60 8 1 28 15 45 32 16 17 83 67 149 111 66 44 135 94 153 111 l32
31 0 184 0 183 -29 43 c-16 23 -59 70 -96 104 l-66 62 -135 0 c-82 0 -143 -4
-157 -12 -12 -6 -27 -14 -33 -17 -42 -23 -208 -143 -252 -183 -30 -26 -60 -48
-68 -48 -14 0 -101 -57 -319 -210 -55 -39 -158 -110 -230 -159 -71 -48 -139
-99 -150 -111 -24 -27 -190 -140 -206 -140 -6 0 -36 -22 -66 -50 -30 -27 -61
-50 -69 -50 -18 0 -152 -90 -179 -120 -25 -28 -130 -100 -147 -101 -7 0 -44
-22 -83 -50 -38 -27 -110 -77 -160 -111 -49 -34 -114 -83 -143 -110 -30 -26
-60 -48 -69 -48 -8 0 -35 -18 -60 -40 -25 -22 -53 -40 -63 -40 -9 0 -29 -14
-46 -31 -36 -38 -138 -109 -157 -109 -7 0 -26 -14 -43 -31 -16 -17 -87 -71
-159 -120 -71 -49 -182 -125 -245 -168 -63 -44 -122 -80 -131 -80 -8 -1 -28
-15 -45 -32 -16 -17 -74 -62 -129 -100 -55 -38 -138 -96 -185 -128 -47 -33
-92 -60 -101 -60 -8 -1 -29 -16 -47 -34 l-32 -33 0 -414 0 -413 -42 -56 c-63
-84 -127 -148 -190 -192 l-57 -39 -141 0 -141 0 -57 39 c-63 44 -127 108 -190
192 l-42 56 0 384 c0 286 -3 388 -12 397 -17 17 -599 17 -616 0 -9 -9 -12
-204 -12 -816 l0 -803 -39 -57 c-55 -81 -194 -212 -225 -212 -14 0 -28 -4 -31
-10 -4 -6 -58 -10 -130 -10 -118 0 -125 1 -181 31 -33 16 -81 51 -107 77 -59
57 -127 154 -127 181 0 11 -4 23 -10 26 -7 4 -10 280 -10 794 0 656 -2 790
-14 800 -9 8 -99 11 -307 9 l-294 -3 -3 -374 c-2 -354 -3 -375 -22 -401 -11
-16 -20 -36 -20 -46 0 -9 -53 -71 -118 -136 l-119 -118 -163 0 -163 0 -119
118 c-77 78 -118 126 -118 140 0 12 -9 37 -20 57 -19 34 -20 54 -20 418 l0
383 -33 32 c-18 18 -39 32 -45 32 -19 0 -182 113 -216 149 -17 17 -36 31 -43
31 -18 0 -182 111 -208 140 -27 31 -100 80 -118 80 -9 0 -39 22 -69 48 -63 57
-112 92 -128 92 -15 0 -120 72 -145 100 -27 30 -161 120 -179 120 -8 0 -38 22
-68 48 -63 58 -171 132 -191 132 -8 0 -39 21 -67 48 -29 26 -94 75 -144 110
-50 34 -163 112 -251 172 -88 60 -217 149 -286 197 -70 49 -173 120 -230 159
-57 40 -117 86 -133 103 -17 17 -36 31 -43 31 -13 0 -50 24 -322 213 -69 48
-198 136 -286 196 -88 60 -173 123 -189 140 -17 17 -38 31 -47 31 -10 0 -42
23 -72 50 -30 28 -62 50 -70 50 -9 0 -19 5 -22 10 -4 6 -67 10 -156 10 l-149
0 -85 -81z m8975 -5259 c14 -11 36 -20 50 -20 14 0 36 -9 50 -20 14 -11 31
-20 39 -20 61 -1 440 -381 441 -442 0 -7 9 -24 20 -38 11 -14 20 -36 20 -50 0
-14 9 -36 20 -50 12 -16 20 -41 20 -67 0 -23 5 -45 10 -48 6 -4 10 -83 10
-205 0 -122 -4 -201 -10 -205 -5 -3 -10 -19 -10 -35 0 -16 -9 -45 -20 -65 -11
-20 -20 -43 -20 -53 0 -9 -9 -28 -20 -42 -11 -14 -20 -32 -20 -40 0 -8 -9 -26
-20 -40 -11 -14 -20 -33 -20 -44 0 -22 -259 -287 -298 -306 -38 -18 -43 -20
-110 -67 -53 -37 -68 -43 -114 -43 -37 0 -60 -6 -78 -20 -23 -18 -42 -20 -250
-20 -208 0 -227 2 -250 20 -16 13 -41 20 -70 20 -29 0 -54 7 -70 20 -14 11
-31 20 -38 20 -14 0 -74 39 -147 94 -110 83 -275 267 -275 308 0 7 -9 24 -20
38 -11 14 -20 32 -20 40 -1 8 -14 31 -30 50 -23 26 -30 44 -30 77 0 23 -4 45
-10 48 -6 4 -10 97 -10 245 0 148 4 241 10 245 6 3 10 30 10 58 0 44 5 59 30
87 16 19 29 42 30 50 0 8 9 26 20 40 11 14 20 33 20 43 0 25 226 255 316 323
40 30 82 54 95 54 13 0 35 9 49 20 14 11 32 20 40 20 8 0 26 9 40 20 23 18 42
20 310 20 268 0 287 -2 310 -20z m-2495 -2670 c3 -5 26 -10 50 -10 39 0 50 -6
102 -54 81 -75 103 -120 103 -211 0 -41 -4 -77 -10 -80 -5 -3 -10 -22 -10 -42
0 -34 -15 -51 -220 -258 l-220 -221 0 -44 c0 -29 7 -54 20 -70 11 -14 20 -40
20 -58 0 -44 39 -98 142 -198 98 -96 137 -124 171 -124 14 0 29 -4 32 -10 4
-6 70 -10 165 -10 95 0 161 4 165 10 3 6 22 10 41 10 49 0 102 39 209 155 50
53 118 126 152 161 l62 64 142 0 141 0 79 -79 c58 -57 79 -86 79 -104 0 -14 5
-29 10 -32 6 -3 10 -50 10 -105 0 -55 -4 -102 -10 -105 -5 -3 -10 -23 -10 -43
0 -34 -13 -49 -198 -234 -120 -120 -206 -198 -218 -198 -10 0 -30 -9 -44 -20
-14 -11 -32 -20 -40 -20 -8 0 -26 -9 -40 -20 -14 -11 -36 -20 -50 -20 -14 0
-36 -9 -50 -20 -14 -11 -39 -20 -57 -20 -17 0 -35 -4 -38 -10 -3 -5 -26 -10
-50 -10 -24 0 -47 -4 -50 -10 -4 -6 -97 -10 -245 -10 -148 0 -241 4 -245 10
-3 6 -21 10 -40 10 -19 0 -37 5 -40 10 -3 6 -16 10 -28 10 -12 0 -33 9 -47 20
-14 11 -36 20 -50 20 -14 0 -36 9 -50 20 -14 11 -32 20 -40 20 -8 0 -26 9 -40
20 -14 11 -33 20 -43 20 -10 0 -65 45 -121 100 -131 127 -143 129 -231 39 -60
-61 -222 -179 -247 -179 -7 0 -24 -9 -38 -20 -14 -11 -36 -20 -50 -20 -14 0
-36 -9 -50 -20 -14 -11 -39 -20 -57 -20 -17 0 -35 -4 -38 -10 -3 -5 -26 -10
-50 -10 -24 0 -47 -4 -50 -10 -4 -6 -102 -10 -260 -10 -236 0 -257 1 -290 20
-20 11 -48 20 -63 20 -15 0 -38 9 -52 20 -14 11 -36 20 -50 20 -14 0 -36 9
-50 20 -14 11 -31 20 -38 20 -32 0 -195 127 -292 227 -105 107 -137 146 -198
235 -31 46 -32 48 -32 164 l0 117 99 98 98 99 133 0 133 0 171 -168 c186 -183
221 -212 259 -212 14 0 29 -4 32 -10 4 -6 70 -10 165 -10 95 0 161 4 165 10 3
6 23 10 43 10 34 0 47 10 159 122 68 68 123 130 123 138 0 8 9 26 20 40 14 18
20 41 20 80 0 31 5 61 12 68 8 8 8 15 0 25 -7 8 -9 17 -5 21 4 3 -86 100 -200
215 -122 122 -207 216 -207 227 0 10 -9 30 -20 44 -16 20 -20 41 -20 114 l0
89 89 88 c78 79 92 89 124 89 20 0 39 5 42 10 4 6 200 10 555 10 355 0 551 -4
555 -10z"/>
<path d="M12265 10469 l-75 -72 0 -136 0 -137 73 -72 72 -72 146 0 145 0 62
63 62 63 0 145 0 146 -75 72 -75 71 -130 0 -130 0 -75 -71z"/>
<path d="M6935 11490 c-3 -5 -21 -10 -40 -10 -19 0 -37 -4 -40 -10 -3 -5 -18
-10 -33 -10 -15 0 -38 -9 -52 -20 -14 -11 -36 -20 -50 -20 -14 -1 -41 -14 -60
-30 -19 -17 -46 -30 -60 -30 -14 0 -36 -9 -50 -20 -14 -11 -32 -20 -40 -20 -8
0 -26 -9 -40 -20 -14 -11 -32 -20 -40 -20 -19 0 -420 -400 -420 -418 0 -7 -18
-40 -40 -72 -22 -32 -40 -69 -40 -82 0 -13 -13 -39 -30 -58 -16 -19 -29 -46
-30 -60 0 -14 -9 -36 -20 -50 -11 -14 -20 -41 -20 -60 0 -19 -9 -46 -20 -60
-13 -17 -20 -41 -20 -72 0 -26 -4 -50 -10 -53 -6 -4 -10 -117 -10 -305 0 -188
4 -301 10 -305 6 -3 10 -23 10 -43 0 -21 9 -48 20 -62 11 -14 20 -41 20 -60 0
-19 9 -46 20 -60 11 -14 20 -36 20 -50 1 -14 14 -41 30 -60 17 -19 30 -41 30
-50 0 -8 9 -26 20 -40 11 -14 20 -31 20 -38 1 -74 465 -540 540 -542 8 0 26
-9 40 -20 14 -11 36 -20 50 -20 14 0 36 -9 50 -20 14 -11 30 -20 37 -20 7 0
28 -9 48 -20 20 -11 44 -20 55 -20 10 0 22 -4 25 -10 3 -5 30 -10 60 -10 30 0
57 -4 60 -10 4 -6 127 -10 335 -10 208 0 331 4 335 10 3 6 28 10 55 10 34 0
64 9 105 30 31 17 67 30 79 30 11 0 32 9 46 20 14 11 32 20 40 20 8 0 26 9 40
20 14 11 32 20 40 20 8 1 31 14 50 30 19 17 41 30 49 30 18 0 401 379 401 397
0 15 74 128 90 138 5 3 10 18 10 33 0 15 9 38 20 52 11 14 20 36 20 50 0 14 9
36 20 50 11 14 20 41 20 60 0 19 9 46 20 60 13 17 20 41 20 72 0 26 5 50 10
53 6 4 10 113 10 295 0 182 -4 291 -10 295 -5 3 -10 27 -10 53 0 31 -7 55 -20
72 -13 16 -20 41 -20 70 0 29 -7 54 -20 70 -11 14 -20 36 -20 50 0 14 -9 36
-20 50 -11 14 -20 33 -20 42 0 9 -5 20 -10 23 -16 10 -90 123 -90 137 0 18
-402 418 -420 418 -8 0 -26 9 -40 20 -14 11 -32 20 -40 20 -8 0 -26 9 -40 20
-14 11 -31 20 -38 20 -7 0 -33 14 -57 30 -24 17 -52 30 -62 30 -10 0 -29 9
-43 20 -17 13 -41 20 -72 20 -26 0 -50 5 -53 10 -3 6 -17 10 -30 10 -13 0 -27
5 -30 10 -4 6 -123 10 -325 10 -202 0 -321 -4 -325 -10z m635 -530 c14 -11 36
-20 50 -20 14 0 36 -9 50 -20 14 -11 31 -20 38 -20 63 -1 422 -360 422 -422 0
-8 4 -18 9 -24 15 -15 51 -84 51 -97 0 -7 9 -23 20 -37 12 -16 20 -41 20 -67
0 -23 5 -45 10 -48 6 -4 10 -87 10 -215 0 -128 -4 -211 -10 -215 -5 -3 -10
-21 -10 -38 0 -18 -9 -43 -20 -57 -11 -14 -20 -30 -20 -37 0 -13 -36 -82 -51
-97 -5 -6 -9 -16 -9 -24 0 -46 -313 -382 -357 -382 -10 0 -29 -9 -43 -20 -14
-11 -32 -20 -40 -20 -8 0 -26 -9 -40 -20 -16 -13 -41 -20 -70 -20 -29 0 -54
-7 -70 -20 -23 -18 -42 -20 -270 -20 -228 0 -247 2 -270 20 -14 11 -36 20 -50
20 -14 0 -36 9 -50 20 -14 11 -31 20 -39 20 -45 1 -441 374 -441 416 0 11 -9
30 -20 44 -11 14 -20 36 -20 50 0 14 -9 36 -20 50 -11 14 -20 36 -20 50 0 14
-9 36 -20 50 -18 23 -20 42 -20 227 0 184 2 206 20 238 11 20 20 48 20 63 0
15 9 38 20 52 11 14 20 36 20 50 0 14 9 36 20 50 11 14 20 31 20 38 0 28 67
111 179 225 122 125 215 197 253 197 13 0 34 9 48 20 14 11 32 20 40 20 8 0
26 9 40 20 23 18 42 20 310 20 268 0 287 -2 310 -20z"/>
<path d="M7324 10466 l-74 -74 0 -130 c0 -77 4 -133 10 -137 6 -3 10 -14 10
-23 0 -10 24 -41 53 -70 l53 -52 156 0 156 0 61 65 61 66 0 143 0 143 -75 72
-75 71 -131 0 -131 0 -74 -74z"/>
<path d="M3857 6473 c-4 -3 -7 -533 -7 -1177 0 -1147 1 -1172 20 -1196 11 -14
20 -41 20 -60 1 -24 10 -46 30 -70 17 -19 30 -40 30 -48 0 -25 42 -76 174
-209 104 -106 136 -133 158 -133 15 0 30 -4 33 -10 8 -13 282 -13 290 0 3 6
17 10 30 10 13 0 27 5 30 10 3 6 14 10 23 10 21 0 262 240 262 261 0 8 13 30
30 49 16 19 29 45 30 57 0 12 9 38 20 58 11 20 20 53 20 75 0 21 5 42 10 45 6
4 10 184 10 508 l0 502 -381 380 c-223 223 -401 409 -430 450 -27 39 -68 93
-90 120 -22 28 -90 123 -150 213 -89 131 -114 162 -132 162 -13 0 -27 -3 -30
-7z"/>
</g>
</svg>
